# xmcd
#
# Track frame offsets:
#	150
#	12933
#	27430
#	42010
#	55720
#	70379
#	82582
#	100039
#	117434
#	130230
#	146649
#	158581
#	179518
#	194976
#	212016
#	228022
#	245030
#	257273
#	280937
#	297219
#
# Disc length: 4222 seconds
#
# Revision: 1
# Processed by: cddbd v1.4PL0 Copyright (c) Steve Scherf et al.
# Submitted via: audiograbber 1.80
#
DISCID=18107c14
DTITLE=Varios - Bailão dos Cafagestes Vol 4
DYEAR=1900
DGENRE=
TTITLE0=Bate o Pé
TTITLE1=Sou Maluco Por Mulher
TTITLE2=Meu Amor Fugiu de Mim
TTITLE3=Afoga na Cerveja
TTITLE4=Uai Uai
TTITLE5=Bota Lenha na Fogueira
TTITLE6=Eu Quero Essa Mulher
TTITLE7=Só Mais um Beijo
TTITLE8=Grudadinho em Você
TTITLE9=Casa Cheia
TTITLE10=Hei, Hei, Hei Trem Bom
TTITLE11=A Gata do Milenio
TTITLE12=Na Pontinha do Pé
TTITLE13=A Rural
TTITLE14=Mulher Madura
TTITLE15=Fom Fom Rom Fom Fom
TTITLE16=Mulher Braba
TTITLE17=Mambo
TTITLE18=Senhor
TTITLE19=Big Guitar
EXTD=
EXTT0=
EXTT1=
EXTT2=
EXTT3=
EXTT4=
EXTT5=
EXTT6=
EXTT7=
EXTT8=
EXTT9=
EXTT10=
EXTT11=
EXTT12=
EXTT13=
EXTT14=
EXTT15=
EXTT16=
EXTT17=
EXTT18=
EXTT19=
PLAYORDER=
